<?xml version="1.0" standalone="no"?>
<!DOCTYPE svg PUBLIC "-//W3C//DTD SVG 20010904//EN"
 "http://www.w3.org/TR/2001/REC-SVG-20010904/DTD/svg10.dtd">
<svg version="1.0" xmlns="http://www.w3.org/2000/svg"
 width="300.000000pt" height="277.000000pt" viewBox="0 0 300.000000 277.000000"
 preserveAspectRatio="xMidYMid meet">
<metadata>
Created by potrace 1.10, written by Peter Selinger 2001-2011
</metadata>
<g transform="translate(0.000000,277.000000) scale(0.100000,-0.100000)"
fill="#000000" stroke="none">
<path d="M2341 2738 c-1 -17 -41 -22 -41 -5 0 4 -4 5 -10 2 -22 -14 -8 -27 25
-23 19 2 35 1 35 -3 0 -15 29 -17 54 -4 23 13 28 12 33 -1 5 -13 7 -13 14 -2
13 20 11 28 -10 28 -11 0 -22 6 -24 13 -3 6 -6 2 -6 -10 -1 -23 -21 -34 -21
-12 0 6 -9 9 -19 6 -13 -3 -21 1 -24 12 -4 14 -5 14 -6 -1z"/>
<path d="M1925 2693 c-19 -15 -19 -15 8 -11 15 3 27 1 27 -3 0 -5 -5 -9 -12
-9 -6 0 -9 -2 -6 -5 3 -3 15 -2 28 3 l22 8 -24 16 c-21 14 -26 14 -43 1z"/>
<path d="M2745 2680 c-3 -6 1 -13 9 -16 20 -8 21 -24 1 -24 -8 0 -15 -4 -15
-10 0 -13 27 -13 35 0 4 6 10 8 15 5 5 -3 4 8 -1 25 -11 30 -32 39 -44 20z"/>
<path d="M2013 2635 c15 -14 23 -25 17 -25 -6 0 -8 -4 -5 -10 10 -16 65 -12
65 5 0 14 11 19 38 16 6 -1 12 3 12 9 0 13 -6 13 -47 -2 -24 -9 -36 -9 -41 -2
-8 12 -46 34 -59 34 -4 0 5 -12 20 -25z"/>
<path d="M2627 2653 c-13 -20 1 -33 35 -33 27 0 29 2 17 16 -8 10 -15 12 -17
5 -6 -17 -20 -13 -24 7 -3 12 -6 14 -11 5z"/>
<path d="M796 2619 c4 -8 -1 -9 -16 -4 -15 5 -20 4 -16 -4 8 -12 38 -14 73 -5
31 8 19 24 -18 24 -20 0 -28 -4 -23 -11z"/>
<path d="M2531 2606 c-13 -14 -21 -30 -19 -36 4 -14 48 26 48 45 0 20 -3 19
-29 -9z"/>
<path d="M2873 2616 c19 -15 22 -32 7 -41 -19 -12 -91 -14 -84 -3 4 6 1 8 -7
6 -8 -3 -13 -11 -11 -17 1 -6 -3 -11 -10 -11 -9 0 -9 -3 -1 -11 11 -11 61 0
106 22 11 6 17 5 17 -2 0 -9 4 -8 14 0 7 6 22 9 32 5 18 -5 18 -5 1 6 -9 6
-22 8 -29 4 -8 -5 -9 -2 -5 10 4 10 7 20 7 22 0 2 5 4 11 4 5 0 7 -5 3 -12 -4
-6 -3 -8 4 -4 6 3 17 -1 25 -9 9 -8 23 -12 32 -9 22 9 13 30 -12 26 -11 -1
-33 4 -49 13 -16 8 -38 15 -49 15 -19 -1 -19 -1 -2 -14z"/>
<path d="M1528 2613 c-29 -7 -20 -23 12 -23 20 0 30 5 30 15 0 15 -9 17 -42 8z"/>
<path d="M918 2597 c-7 -8 -20 -12 -30 -9 -14 3 -17 0 -12 -12 3 -9 10 -13 15
-10 5 3 21 11 35 19 14 7 21 16 15 19 -5 4 -16 0 -23 -7z"/>
<path d="M964 2554 c-19 -15 -18 -15 3 -11 13 3 26 1 29 -4 3 -5 11 -9 17 -8
9 0 9 2 0 6 -7 2 -13 11 -13 19 0 18 -12 18 -36 -2z"/>
<path d="M2165 2541 c-3 -6 -1 -11 5 -11 6 0 9 -4 5 -9 -3 -5 -21 -7 -40 -4
-23 4 -35 2 -35 -6 0 -7 9 -9 26 -5 21 5 25 3 22 -11 -4 -26 18 -30 25 -4 3
11 10 18 15 15 5 -3 9 4 8 16 -1 23 -20 35 -31 19z"/>
<path d="M1529 2524 c-9 -11 -22 -14 -42 -10 -24 5 -28 3 -23 -10 3 -9 6 -21
6 -27 0 -7 5 -4 11 6 6 9 14 15 19 12 10 -6 55 33 47 41 -2 2 -10 -3 -18 -12z"/>
<path d="M2935 2510 c-3 -5 -21 -10 -40 -10 -19 0 -37 -5 -40 -11 -11 -17 -3
-17 47 -4 31 8 51 8 57 2 6 -6 8 -2 4 12 -6 22 -18 27 -28 11z"/>
<path d="M297 2469 c-10 -6 -29 -8 -41 -5 -15 4 -23 1 -23 -8 0 -18 76 -11 97
10 13 12 13 14 0 14 -8 0 -23 -5 -33 -11z"/>
<path d="M115 2430 l-40 -7 37 -2 c20 0 49 -5 63 -11 14 -5 65 -12 113 -15 67
-4 80 -3 57 5 -16 6 -51 11 -77 11 -34 1 -48 5 -48 15 0 15 -35 17 -105 4z"/>
<path d="M1467 2407 c-4 -11 4 -19 25 -26 45 -16 54 -14 32 8 -10 10 -23 16
-28 13 -4 -2 -12 1 -16 8 -5 9 -9 8 -13 -3z"/>
<path d="M1131 2387 c14 -13 27 -18 31 -13 8 11 -20 35 -41 36 -9 0 -6 -8 10
-23z"/>
<path d="M540 2379 c-18 -15 -20 -19 -7 -15 10 3 27 6 38 6 10 0 19 7 19 15 0
21 -20 18 -50 -6z"/>
<path d="M2840 2375 c0 -17 36 -39 50 -30 5 3 22 -1 38 -9 25 -13 29 -13 29 0
0 15 -3 15 -52 19 -52 4 -55 5 -55 14 0 5 8 12 18 14 13 4 11 5 -5 6 -14 1
-23 -5 -23 -14z"/>
<path d="M370 2369 c0 -11 129 -49 164 -49 19 0 53 9 77 20 l44 20 -45 -6
c-25 -3 -55 -7 -67 -10 -24 -5 -75 15 -68 26 2 4 -20 7 -50 6 -30 -1 -55 -4
-55 -7z"/>
<path d="M1070 2361 c-28 -5 -31 -8 -16 -14 22 -9 86 1 86 14 0 10 -16 10 -70
0z"/>
<path d="M886 2338 c3 -4 18 -8 35 -8 16 0 29 -4 29 -10 0 -5 9 -10 20 -10 19
0 19 1 2 18 -18 18 -96 27 -86 10z"/>
<path d="M165 2304 c0 -15 5 -22 13 -19 10 4 17 -21 13 -47 0 -5 14 -8 32 -8
l32 1 -25 20 c-14 12 -25 28 -25 36 0 9 -9 21 -20 29 -18 12 -20 11 -20 -12z"/>
<path d="M2930 2310 c0 -16 -62 -23 -72 -9 -8 11 -9 10 -4 -3 3 -11 -1 -18
-12 -20 -9 -2 5 -4 31 -4 31 -1 43 2 35 8 -8 6 -1 7 20 3 24 -5 32 -3 32 8 0
8 -7 17 -15 21 -8 3 -15 1 -15 -4z"/>
<path d="M960 2285 c-37 -14 -22 -19 29 -9 17 4 28 10 25 15 -7 11 -11 11 -54
-6z"/>
<path d="M2161 2275 c3 -13 13 -20 29 -21 14 0 36 -4 50 -9 21 -7 23 -6 13 7
-7 8 -10 19 -6 24 4 5 1 4 -6 -3 -11 -10 -17 -9 -28 5 -11 13 -16 14 -20 4 -4
-10 -8 -10 -20 0 -13 10 -15 9 -12 -7z"/>
<path d="M984 2258 c-7 -10 8 -14 48 -14 21 1 38 -2 38 -6 0 -4 8 -7 18 -6 9
0 52 -3 95 -7 70 -6 77 -5 77 12 0 15 -2 16 -10 3 -8 -12 -11 -13 -19 -1 -5 8
-10 9 -12 3 -3 -7 -18 -5 -45 4 -43 14 -183 24 -190 12z"/>
<path d="M1680 2250 c0 -12 37 -12 65 0 15 7 10 9 -22 9 -24 1 -43 -3 -43 -9z"/>
<path d="M2355 2241 c6 -11 4 -13 -8 -8 -10 3 -17 3 -17 -2 0 -14 108 -31 133
-21 20 9 20 10 2 9 -11 -1 -22 0 -25 1 -3 1 -17 3 -31 4 -15 1 -35 8 -45 16
-15 12 -16 13 -9 1z"/>
<path d="M2855 2240 c-4 -6 -12 -7 -18 -4 -7 4 -9 4 -5 -1 4 -4 0 -14 -10 -21
-9 -7 -12 -14 -5 -14 6 0 18 6 25 13 9 9 25 11 56 4 41 -8 42 -9 42 -49 0 -52
10 -45 12 8 1 21 6 43 12 47 7 5 3 7 -9 6 -11 -1 -36 -1 -55 0 -27 1 -31 4
-20 11 13 8 13 10 -2 10 -9 0 -20 -5 -23 -10z"/>
<path d="M270 2232 c0 -5 12 -14 26 -20 18 -9 23 -9 18 -1 -4 8 1 9 17 4 21
-7 22 -6 10 9 -14 16 -71 23 -71 8z"/>
<path d="M390 2220 c0 -20 1 -20 25 -4 14 9 25 18 25 20 0 2 -11 4 -25 4 -18
0 -25 -5 -25 -20z"/>
<path d="M1275 2231 c-9 -15 20 -25 53 -18 15 3 34 2 42 -4 11 -6 12 -9 2 -9
-7 0 -11 -4 -7 -10 4 -6 15 -6 30 0 14 5 25 7 25 4 0 -2 6 1 14 8 8 7 11 16 8
19 -13 13 -160 21 -167 10z"/>
<path d="M2040 2230 c8 -5 35 -9 60 -9 34 0 40 2 25 9 -29 13 -104 13 -85 0z"/>
<path d="M1465 2220 c-3 -6 4 -10 16 -10 12 0 19 -3 16 -7 -4 -3 3 -13 15 -21
19 -14 22 -13 34 3 13 17 15 17 59 0 26 -9 49 -14 52 -11 4 3 -1 6 -10 6 -25
0 -21 18 6 23 12 2 -15 5 -61 6 -46 0 -92 6 -102 11 -13 7 -21 7 -25 0z"/>
<path d="M453 2192 c29 -10 46 -20 43 -28 -5 -14 21 -27 29 -14 9 15 -7 40
-26 40 -10 0 -19 5 -19 10 0 6 -17 10 -37 9 l-38 -1 48 -16z"/>
<path d="M2295 2195 c22 -8 49 -13 60 -13 11 0 -2 6 -30 14 -63 17 -84 16 -30
-1z"/>
<path d="M2555 2191 l-50 -7 42 -8 c32 -6 48 -4 65 8 13 9 16 15 8 14 -8 0
-37 -4 -65 -7z"/>
<path d="M317 2179 c-9 -5 -35 -11 -56 -12 -31 -1 -42 -6 -50 -25 -6 -13 -9
-28 -6 -33 4 -5 -1 -9 -9 -9 -9 0 -16 -4 -16 -10 0 -5 4 -10 8 -10 15 0 32 24
32 47 0 23 14 27 95 26 66 -1 68 -2 54 -20 -7 -11 -3 -9 10 3 19 18 21 25 12
40 -9 17 -10 17 -11 2 0 -12 -5 -15 -16 -11 -13 5 -13 7 -2 14 20 13 -23 11
-45 -2z"/>
<path d="M1786 2182 c-2 -4 41 -9 96 -9 55 -1 98 0 95 3 -8 8 -186 14 -191 6z"/>
<path d="M2660 2164 c25 -8 70 -17 100 -20 49 -5 53 -4 40 9 -10 11 -43 17
-100 21 l-85 5 45 -15z"/>
<path d="M20 2155 c0 -18 24 -30 40 -20 8 5 8 11 -1 21 -15 19 -39 18 -39 -1z"/>
<path d="M2050 2163 c35 -2 69 -8 76 -14 6 -5 20 -6 30 -2 17 6 16 8 -6 14
-14 4 -56 7 -95 6 l-70 -1 65 -3z"/>
<path d="M2217 2145 c-3 -6 27 -11 79 -12 49 -2 84 2 84 7 0 6 12 11 28 11 24
2 24 2 4 6 -13 3 -28 0 -35 -5 -7 -6 -42 -7 -84 -3 -47 4 -74 3 -76 -4z"/>
<path d="M2495 2151 c3 -2 0 -9 -5 -16 -7 -9 11 -12 71 -14 44 -1 108 -8 142
-17 70 -17 123 -26 152 -27 11 0 22 -4 25 -9 9 -12 51 22 44 34 -5 8 2 9 22 5
34 -6 66 6 41 16 -22 8 -102 -14 -85 -24 7 -5 -4 -7 -30 -6 -23 0 -42 5 -42
10 0 5 -7 4 -15 -3 -11 -9 -15 -9 -15 -1 0 7 -4 9 -10 6 -5 -3 -37 1 -71 9
-33 9 -83 16 -110 16 -27 0 -49 4 -49 9 0 5 -16 11 -35 13 -19 2 -32 2 -30 -1z"/>
<path d="M568 2108 c3 -14 2 -19 -6 -14 -7 4 -12 2 -12 -3 0 -14 2 -14 32 2
27 14 26 37 -2 37 -14 0 -17 -5 -12 -22z"/>
<path d="M450 2091 c0 -5 6 -12 13 -14 6 -3 -7 -6 -30 -6 -24 -1 -43 -5 -43
-11 0 -16 -18 -12 -40 10 -21 21 -65 27 -75 10 -3 -5 2 -10 12 -10 11 0 28 -7
39 -15 18 -14 18 -14 -8 -15 -16 0 -28 -4 -28 -10 0 -5 13 -7 30 -3 22 4 30 2
30 -8 0 -11 2 -11 9 0 6 10 27 15 60 14 28 0 48 4 45 9 -3 4 -10 6 -15 3 -5
-4 -9 -2 -9 3 0 13 44 23 67 16 14 -4 13 -1 -6 15 -24 22 -51 28 -51 12z"/>
<path d="M538 2059 c-23 -13 -23 -31 -1 -27 9 2 15 7 14 12 -2 5 3 13 11 17
19 12 -3 10 -24 -2z"/>
<path d="M2737 2025 c-16 -14 -26 -29 -22 -34 3 -5 0 -13 -6 -17 -8 -5 -9 -3
-4 7 6 11 5 12 -6 2 -23 -22 -33 -14 -13 9 26 31 -73 -52 -115 -96 -19 -20
-31 -36 -26 -36 4 0 0 -10 -11 -22 -17 -21 -16 -21 9 1 15 14 25 27 22 30 -7
6 56 71 69 71 5 0 -6 -17 -25 -37 l-34 -38 42 39 c23 21 42 42 41 45 -2 18 4
21 21 12 21 -12 51 5 55 31 1 10 10 26 21 38 25 27 16 25 -18 -5z"/>
<path d="M2842 2042 c-7 -2 -10 -7 -7 -12 3 -4 24 -4 47 2 23 5 54 6 68 2 43
-12 50 -13 50 -3 0 5 -3 10 -7 11 -19 3 -140 4 -151 0z"/>
<path d="M2930 1978 c0 -36 -5 -58 -12 -61 -10 -4 -9 -8 2 -16 13 -9 12 -11
-5 -9 -11 0 -29 0 -40 -1 -20 -2 -20 -2 0 -11 31 -13 43 -12 66 11 11 11 27
18 35 15 19 -7 18 -26 -1 -26 -8 0 -15 -5 -15 -11 0 -5 -4 -7 -10 -4 -5 3 -10
2 -10 -3 0 -6 -14 -7 -37 -1 -21 5 -49 8 -63 7 -19 0 -17 -2 10 -8 l35 -7 -31
-2 c-17 0 -38 -9 -45 -18 -13 -15 -12 -16 6 -8 11 5 35 9 53 9 21 0 28 2 20 8
-9 6 -5 8 12 6 18 -2 24 -8 23 -23 -2 -18 -1 -17 9 3 8 16 17 21 31 16 16 -5
19 -3 13 11 -4 12 -2 16 7 12 9 -3 13 4 13 24 0 19 -5 29 -15 29 -12 0 -11 3
4 13 17 13 16 14 -6 12 -13 -1 -23 -8 -21 -14 1 -6 -3 -11 -8 -11 -7 0 -9 16
-6 43 3 23 1 49 -4 57 -7 10 -10 -3 -10 -42z"/>
<path d="M476 2008 c2 -3 -1 -8 -8 -10 -9 -3 -9 -6 0 -12 7 -4 12 -2 12 4 0 6
5 8 10 5 14 -9 52 4 45 15 -3 5 -19 8 -34 7 -16 -1 -27 -5 -25 -9z"/>
<path d="M2310 2010 c0 -5 -6 -10 -14 -10 -7 0 -20 -7 -27 -17 -13 -15 -11
-16 16 -9 17 4 32 12 33 17 2 5 11 9 20 9 15 0 15 2 2 10 -19 13 -30 13 -30 0z"/>
<path d="M230 2001 c0 -5 -3 -16 -6 -25 -4 -11 -1 -16 10 -16 9 0 16 8 16 19
0 11 6 22 13 24 6 3 2 6 -10 6 -13 1 -23 -3 -23 -8z"/>
<path d="M2755 1942 c-34 -31 -50 -48 -35 -36 50 40 60 46 60 37 0 -10 -124
-117 -195 -168 l-40 -29 30 33 30 34 -43 -31 c-40 -29 -44 -29 -72 -15 -17 8
-30 17 -30 19 0 3 4 3 8 0 4 -2 14 -1 22 5 13 7 13 9 1 9 -11 0 -9 5 5 22 13
15 8 13 -16 -6 -19 -16 -34 -32 -33 -36 1 -4 -16 -5 -37 -3 -28 3 -54 -2 -85
-17 -25 -12 -45 -24 -45 -26 0 -2 13 -4 29 -4 20 0 32 6 36 19 5 16 11 18 40
11 19 -4 37 -6 40 -4 3 2 2 0 -2 -5 -5 -5 -17 -11 -28 -14 -19 -4 -19 -5 1 -6
12 0 27 6 34 14 16 19 56 20 63 1 4 -10 16 -12 48 -6 24 5 58 6 76 4 20 -3 43
2 54 10 19 13 18 14 -18 12 -21 0 -44 -5 -50 -9 -35 -23 -2 11 96 97 100 88
132 112 116 86 -3 -6 1 -7 10 -3 11 4 13 8 5 13 -8 5 -6 11 5 20 8 7 15 17 15
23 0 6 -13 -1 -28 -16 -35 -34 -54 -36 -22 -2 41 44 17 26 -45 -33z"/>
<path d="M1132 1967 c-10 -12 -3 -13 51 -8 5 1 5 6 2 11 -9 14 -41 12 -53 -3z"/>
<path d="M2460 1965 c-9 -11 -16 -12 -25 -5 -17 14 -26 1 -14 -21 7 -15 6 -19
-6 -19 -8 0 -15 -4 -15 -9 0 -4 15 -3 34 3 22 7 32 15 28 24 -3 8 1 18 9 22 7
5 11 12 8 15 -4 3 -12 -1 -19 -10z"/>
<path d="M1939 1935 c-9 -8 2 -598 11 -614 9 -16 12 98 13 463 1 135 -5 171
-24 151z"/>
<path d="M2270 1936 c0 -2 6 -15 13 -30 14 -26 30 -26 20 0 -3 8 1 14 8 15 8
0 5 4 -6 9 -23 10 -35 12 -35 6z"/>
<path d="M1484 1905 c4 -12 -3 -15 -32 -16 -21 -1 -29 -3 -17 -6 10 -3 44 0
75 8 48 11 52 13 30 20 -43 12 -63 10 -56 -6z"/>
<path d="M438 1891 c27 -26 28 -38 5 -44 -17 -4 -17 -5 -1 -6 10 0 22 8 28 19
9 16 6 22 -22 36 l-33 16 23 -21z"/>
<path d="M140 1887 l-25 -10 24 -5 c13 -2 28 1 33 6 15 15 -4 21 -32 9z"/>
<path d="M0 1865 c0 -8 9 -15 20 -15 11 0 20 7 20 15 0 8 -9 15 -20 15 -11 0
-20 -7 -20 -15z"/>
<path d="M297 1846 c-10 -8 -61 -16 -125 -20 -59 -4 -123 -11 -142 -16 -35 -8
-35 -8 -5 -9 17 0 86 7 155 15 69 8 149 15 178 15 28 0 52 4 52 10 0 6 -17 8
-40 6 -22 -2 -40 0 -40 5 0 12 -12 10 -33 -6z"/>
<path d="M2323 1835 c-29 -7 -66 -24 -82 -38 -20 -16 -38 -23 -51 -20 -11 3
-20 0 -20 -6 0 -7 -25 -11 -67 -12 l-68 -1 90 -13 c86 -13 92 -12 128 8 35 19
50 47 26 47 -5 0 -7 5 -3 12 5 7 11 5 21 -7 7 -11 13 -13 13 -6 0 7 3 10 8 8
4 -3 21 6 37 19 17 13 28 23 25 23 -3 -1 -28 -7 -57 -14z"/>
<path d="M1018 1819 c12 -12 122 -26 128 -17 3 4 15 6 27 4 12 -1 16 -1 9 1
-7 3 -10 8 -8 11 2 4 -34 7 -80 7 -46 0 -80 -3 -76 -6z"/>
<path d="M2035 1821 l-50 -6 38 -8 c21 -5 44 -9 50 -11 7 -1 8 -1 4 2 -4 2 -3
10 4 18 6 8 10 13 8 12 -2 0 -26 -4 -54 -7z"/>
<path d="M2972 1818 c-14 -14 -16 -48 -2 -48 5 0 7 8 4 18 -5 14 -3 14 10 -2
15 -19 16 -19 16 12 0 34 -8 40 -28 20z"/>
<path d="M2722 1766 c-29 -25 -66 -54 -82 -66 -16 -12 -29 -26 -27 -33 1 -8
-16 -12 -58 -11 -33 1 -45 0 -27 -3 18 -2 30 -9 27 -14 -4 -5 -16 -7 -28 -5
-12 1 -16 1 -8 -1 10 -4 6 -11 -14 -27 -44 -35 0 -30 52 5 31 22 53 29 88 29
30 0 44 -4 40 -11 -4 -6 -12 -8 -19 -6 -6 3 -27 -6 -46 -19 -19 -13 -29 -24
-22 -24 8 0 10 -5 6 -12 -4 -8 -3 -10 2 -5 5 5 9 14 9 20 0 5 6 12 14 15 9 3
11 0 6 -8 -6 -10 61 37 164 116 2 2 -7 2 -20 2 -13 -1 -41 -14 -61 -30 -42
-32 -98 -39 -94 -11 2 9 9 19 16 21 9 3 10 0 4 -9 -7 -12 -5 -12 9 0 9 7 14
17 12 22 -7 10 30 31 40 21 3 -4 5 -1 3 7 -2 10 17 13 92 13 76 -1 90 1 67 9
-16 7 -24 15 -20 22 4 7 1 7 -9 -1 -9 -7 -40 -15 -69 -17 l-52 -4 34 29 c19
16 31 29 28 30 -3 0 -29 -20 -57 -44z"/>
<path d="M1376 1791 c-4 -5 22 -10 56 -11 35 0 87 -2 116 -4 73 -5 65 10 -9
18 -88 9 -157 8 -163 -3z"/>
<path d="M1839 1793 c19 -4 21 -7 10 -15 -11 -8 -10 -9 4 -4 10 3 27 6 38 6
10 0 19 5 19 10 0 6 -21 9 -47 9 -27 -1 -37 -4 -24 -6z"/>
<path d="M1851 1739 c17 -15 9 -18 -108 -35 -70 -10 -121 -20 -115 -22 7 -2
76 6 155 19 112 18 135 24 110 30 -18 3 -39 10 -46 15 -7 5 -5 2 4 -7z"/>
<path d="M2961 1737 c0 -12 3 -16 6 -9 3 9 9 10 17 3 8 -7 12 -5 13 7 1 11 -6
18 -18 19 -14 1 -19 -4 -18 -20z"/>
<path d="M208 1718 c22 -9 99 -8 137 2 19 5 -4 7 -62 6 -51 0 -85 -4 -75 -8z"/>
<path d="M2022 1725 c2 -3 62 -14 134 -25 152 -24 176 -32 79 -25 -64 4 -68 4
-45 -9 14 -8 28 -12 32 -10 5 3 8 -4 8 -14 0 -13 -10 -24 -30 -31 -32 -11 -69
-41 -51 -41 5 0 12 4 15 8 6 10 66 3 67 -7 4 -36 3 -61 -3 -62 -29 -5 -56 -19
-61 -33 -3 -8 14 -10 64 -8 43 3 69 0 69 -6 0 -15 -21 -20 -52 -11 -26 7 -28
5 -28 -22 0 -18 -5 -29 -14 -29 -7 0 -20 -8 -27 -17 -7 -10 -9 -15 -5 -11 5 4
15 0 22 -10 7 -9 16 -14 20 -9 4 4 -1 14 -12 23 -17 14 -18 15 -1 10 10 -3 21
-6 23 -6 2 0 5 -19 5 -42 l2 -43 7 40 c5 29 8 10 10 -75 2 -64 5 -92 7 -62 2
28 8 52 13 52 5 0 8 15 7 33 0 17 2 39 4 47 3 8 4 12 2 8 -7 -11 -23 -10 -23
2 0 6 9 19 20 30 l20 20 -32 -2 c-29 -3 -33 0 -36 25 -3 21 1 27 17 27 11 0
22 -9 26 -21 4 -13 12 -18 22 -15 8 3 20 6 26 6 23 0 38 17 31 34 -5 14 -9 15
-15 4 -13 -21 -12 9 2 34 8 15 8 19 0 14 -6 -4 -11 -2 -11 5 0 8 -6 6 -18 -4
-26 -23 -29 -21 -24 12 2 16 -1 39 -8 51 -12 22 -11 22 21 17 34 -5 69 6 69
22 0 5 -18 3 -40 -2 -31 -9 -43 -8 -52 2 -11 11 -8 12 17 7 23 -5 27 -4 15 5
-12 8 -10 10 10 5 14 -3 31 -1 39 3 24 15 -3 20 -52 8 -44 -10 -47 -12 -47
-44 0 -20 5 -33 13 -33 8 0 7 -4 -3 -10 -12 -8 -13 -13 -3 -29 14 -22 8 -31
-20 -31 -15 0 -17 3 -9 13 7 8 10 46 9 90 l-2 78 35 0 c163 2 195 5 192 17 -2
14 14 16 23 2 7 -11 65 18 65 33 0 4 -6 5 -12 1 -17 -11 -48 -12 -53 -3 -7 10
-42 -1 -56 -17 -9 -12 -9 -13 4 -9 8 4 18 1 22 -6 6 -9 -7 -10 -56 -5 -140 15
-280 39 -268 47 7 4 -17 8 -55 8 -37 0 -66 -2 -64 -4z"/>
<path d="M2881 1701 c-7 -5 -10 -14 -6 -20 5 -9 10 -9 21 0 10 8 10 4 -2 -20
-8 -17 -19 -33 -24 -36 -5 -3 -7 -11 -4 -18 6 -18 -27 -33 -111 -51 -111 -23
-261 -63 -285 -76 -12 -6 -28 -9 -36 -6 -8 3 -14 2 -14 -2 0 -5 -12 -13 -27
-19 -28 -11 -27 -11 12 -12 30 -1 36 -4 25 -11 -8 -5 -25 -10 -38 -10 -22 0
-22 -1 -7 -16 9 -9 14 -23 11 -30 -3 -7 -1 -16 4 -19 6 -4 11 -16 12 -28 1
-12 4 3 8 33 5 44 7 30 8 -64 1 -66 5 -116 9 -112 4 4 6 25 4 46 -1 25 2 40 9
40 6 0 8 5 3 13 -4 6 -9 23 -11 36 -3 20 -1 22 11 12 16 -12 16 -7 3 91 -4 31
-1 40 16 49 16 9 23 9 26 1 3 -9 9 -9 25 0 12 7 26 11 30 10 7 -2 82 18 237
65 30 10 60 17 65 18 6 1 27 5 48 9 39 9 47 28 28 64 -6 9 -12 29 -16 45 -6
29 -12 32 -34 18z"/>
<path d="M10 1692 c34 -21 422 -57 715 -67 110 -4 198 -4 195 -1 -3 3 -120 10
-260 16 -221 9 -554 38 -638 56 -19 4 -23 2 -12 -4z"/>
<path d="M570 1680 c-19 -6 -9 -8 37 -9 34 -1 65 4 68 9 7 12 -68 12 -105 0z"/>
<path d="M760 1670 l-45 -7 47 -1 c26 -1 50 3 53 8 3 6 3 9 -2 8 -4 0 -28 -4
-53 -8z"/>
<path d="M1009 1637 c4 -4 39 -7 77 -5 l69 3 -77 5 c-42 3 -73 1 -69 -3z"/>
<path d="M1828 1633 c18 -2 45 -2 60 0 15 2 0 4 -33 4 -33 0 -45 -2 -27 -4z"/>
<path d="M2389 1621 c6 -10 7 -22 3 -26 -4 -4 3 -3 15 4 12 6 25 16 28 21 4 6
10 8 15 5 5 -3 11 -1 15 5 4 6 -11 10 -40 10 -42 0 -45 -2 -36 -19z"/>
<path d="M2974 1633 c-16 -3 -20 -9 -17 -23 3 -11 9 -17 14 -14 5 3 6 11 2 17
-4 7 0 6 10 -2 15 -12 17 -11 17 8 0 11 -1 20 -2 20 -2 -1 -13 -4 -24 -6z"/>
<path d="M1725 1619 c-29 -6 -29 -7 -5 -9 14 -2 30 -4 35 -5 6 -2 21 -3 34 -4
33 -1 19 -13 -26 -21 l-38 -8 36 -1 c20 0 42 5 48 13 7 8 21 12 33 8 14 -3 19
-1 14 6 -4 7 -24 12 -45 12 -20 0 -41 4 -46 8 -6 5 -23 5 -40 1z"/>
<path d="M1990 1619 c-11 -8 -4 -9 28 -5 25 4 42 2 42 -4 0 -5 -14 -10 -31
-10 -31 0 -37 -19 -9 -28 7 -3 10 0 6 6 -4 7 15 13 51 17 32 4 72 13 88 21 28
13 24 14 -65 14 -52 0 -102 -5 -110 -11z"/>
<path d="M1260 1592 c0 -5 13 -7 29 -4 16 2 32 -1 35 -7 4 -6 17 -11 29 -11
21 1 21 1 -3 15 -27 15 -90 20 -90 7z"/>
<path d="M962 1582 c-12 -2 -20 -8 -17 -13 8 -12 45 -12 45 0 0 5 18 1 40 -10
21 -10 47 -19 57 -18 12 1 10 3 -7 8 -14 4 -24 13 -23 19 2 6 -4 9 -12 6 -8
-4 -15 -2 -15 4 0 10 -25 11 -68 4z"/>
<path d="M2865 1553 c-70 -15 -215 -58 -206 -61 6 -2 27 2 46 8 19 6 39 8 45
5 6 -4 19 0 28 8 23 20 72 33 72 18 0 -6 -8 -11 -18 -11 -11 0 -26 -8 -35 -18
-19 -21 -23 -42 -5 -24 7 7 20 12 30 12 10 0 18 5 18 11 0 5 5 7 10 4 6 -3 10
3 10 14 0 12 10 23 28 29 27 10 14 13 -23 5z"/>
<path d="M284 1539 c-3 -5 18 -9 46 -9 29 0 49 4 45 9 -7 12 -83 12 -91 0z"/>
<path d="M2028 1503 c17 -2 47 -2 65 0 17 2 3 4 -33 4 -36 0 -50 -2 -32 -4z"/>
<path d="M2545 1466 c-44 -12 -73 -25 -65 -28 8 -3 23 -1 33 4 12 6 23 5 33
-3 12 -10 13 -9 9 3 -4 10 2 17 17 22 42 11 50 8 38 -13 -13 -25 -13 -31 1
-31 5 0 8 4 5 9 -3 5 1 14 9 21 16 13 21 41 8 39 -5 0 -44 -11 -88 -23z"/>
<path d="M0 1456 c0 -9 7 -12 19 -9 10 2 25 -2 32 -10 8 -8 25 -18 38 -22 19
-6 21 -9 10 -17 -10 -7 2 -8 34 -4 57 7 132 -18 107 -35 -12 -8 -10 -10 10 -8
14 1 40 -2 58 -6 26 -6 32 -12 32 -35 0 -22 -6 -29 -25 -32 -23 -5 -25 -2 -25
28 0 19 -4 34 -10 34 -6 0 -10 -40 -10 -101 0 -77 3 -100 12 -97 7 3 22 -4 33
-15 11 -11 14 -17 8 -13 -15 9 -16 1 -3 -23 5 -11 21 -18 38 -19 24 0 31 4 35
24 2 13 -1 28 -8 32 -24 14 -33 48 -34 135 -2 66 1 87 11 87 10 0 12 -19 10
-77 -2 -43 1 -89 7 -103 7 -19 10 -1 10 78 1 61 5 102 11 102 6 0 10 -6 10
-12 0 -7 14 -21 30 -30 19 -11 30 -26 31 -40 1 -19 3 -17 8 7 7 29 7 29 15 8
4 -13 12 -23 17 -23 12 0 11 24 -2 37 -8 8 3 12 41 14 29 2 54 1 56 -2 2 -4
15 -4 29 -1 14 2 32 -1 40 -8 8 -6 30 -12 50 -13 22 -1 35 -6 35 -14 0 -7 -4
-13 -9 -13 -5 0 -7 -9 -4 -19 3 -13 -2 -23 -17 -31 -16 -9 -19 -15 -11 -23 17
-17 13 -27 -10 -27 -11 0 -17 -5 -14 -10 11 -18 48 9 42 31 -3 12 0 19 8 19 7
0 16 6 19 13 3 6 4 3 3 -8 -1 -12 4 -20 13 -20 10 0 14 -10 13 -30 -2 -29 -2
-29 9 -7 6 12 15 22 20 22 4 0 8 5 8 10 0 6 -5 10 -11 10 -18 0 -38 32 -39 62
0 23 4 26 28 23 15 -2 51 -7 81 -10 30 -4 77 -14 105 -22 63 -18 116 -28 73
-14 -16 5 -34 14 -40 19 -14 11 -42 16 -218 41 -69 10 -135 24 -147 30 -11 6
-56 11 -99 11 -46 1 -95 7 -118 16 -22 9 -62 17 -90 18 -32 2 -74 14 -116 34
-37 18 -80 32 -97 32 -17 0 -51 9 -77 20 -55 24 -65 25 -65 6z m340 -216 c0
-13 -7 -20 -20 -20 -11 0 -20 -4 -20 -10 0 -5 9 -10 20 -10 15 0 20 -7 20 -24
0 -14 -5 -28 -12 -32 -7 -4 -8 -3 -4 4 5 8 -1 12 -18 12 -18 0 -23 5 -21 18 2
9 4 32 4 50 1 27 5 32 26 32 18 0 25 -5 25 -20z m33 -143 c4 3 7 1 7 -5 0 -7
-9 -11 -20 -9 -26 4 -34 13 -24 28 5 9 10 8 19 -4 7 -9 15 -14 18 -10z"/>
<path d="M433 1443 c-13 -2 -23 -9 -23 -14 0 -6 5 -7 12 -3 6 4 53 11 102 14
l91 7 -80 0 c-44 0 -90 -2 -102 -4z"/>
<path d="M755 1440 c-3 -5 -18 -8 -33 -6 -15 1 -36 -1 -47 -5 -14 -5 -3 -8 33
-8 34 -1 52 3 52 11 0 9 3 9 12 0 15 -15 178 -17 178 -2 0 7 -31 10 -84 9 -46
-1 -89 1 -94 5 -6 3 -13 2 -17 -4z"/>
<path d="M2689 1435 c-1 -8 -2 -21 -3 -27 -1 -7 7 -13 17 -13 9 0 16 5 15 10
-1 6 -8 9 -14 7 -8 -1 -10 5 -7 18 3 11 3 20 -1 20 -3 0 -7 -7 -7 -15z"/>
<path d="M2097 1433 c-4 -3 -7 -17 -7 -30 0 -12 -4 -23 -10 -23 -5 0 -10 -9
-10 -20 0 -23 -1 -23 36 -10 28 10 46 50 23 50 -5 0 -9 9 -9 20 0 20 -11 26
-23 13z"/>
<path d="M2330 1401 c-25 -7 -25 -7 -2 -13 13 -4 22 -14 22 -26 0 -11 7 -25
15 -32 13 -11 13 -15 3 -21 -10 -7 -9 -9 4 -9 25 0 34 21 15 35 -10 7 -17 19
-17 28 0 9 -5 19 -10 22 -6 4 -8 11 -5 16 4 5 5 9 3 8 -2 -1 -14 -4 -28 -8z"/>
<path d="M2630 1349 c0 -54 6 -63 12 -19 2 14 6 30 10 35 3 6 0 16 -8 23 -12
11 -14 5 -14 -39z"/>
<path d="M2787 1383 c-15 -2 -25 -9 -21 -14 3 -5 9 -7 14 -4 17 11 49 -15 53
-42 2 -17 5 -10 6 20 1 32 -3 47 -11 46 -7 -1 -25 -4 -41 -6z"/>
<path d="M2693 1363 c-15 -3 -20 -9 -16 -19 4 -12 8 -13 14 -3 6 10 11 10 22
1 12 -10 16 -9 20 8 5 20 2 21 -40 13z"/>
<path d="M2148 1353 c-10 -2 -18 -9 -18 -14 0 -13 14 -11 29 4 12 10 13 9 7
-7 -4 -12 -1 -23 6 -28 11 -6 11 -8 0 -8 -8 0 -6 -7 7 -21 13 -14 26 -19 40
-14 20 6 20 6 1 25 -11 11 -22 31 -26 45 -6 25 -12 27 -46 18z"/>
<path d="M2045 1325 c-78 -17 -122 -34 -109 -43 6 -4 8 -62 4 -159 -3 -84 -2
-149 2 -145 3 4 8 61 9 127 3 139 8 185 21 185 5 0 6 -9 3 -20 -4 -11 -2 -20
4 -20 6 0 11 -9 11 -20 0 -17 3 -19 19 -8 19 12 19 13 -6 42 l-25 30 28 8 c32
9 64 2 64 -13 0 -6 -4 -8 -9 -4 -15 8 -20 -8 -10 -32 14 -37 28 -26 32 25 2
26 5 -2 7 -63 3 -75 5 -92 7 -52 3 43 8 57 19 57 8 0 12 5 9 10 -4 6 -11 8
-16 5 -5 -4 -9 17 -9 47 1 50 1 52 17 33 14 -18 15 -18 9 -2 -3 10 -6 21 -6
23 0 5 -5 5 -75 -11z"/>
<path d="M410 1232 c0 -45 4 -82 8 -82 10 0 7 148 -2 157 -3 4 -6 -30 -6 -75z"/>
<path d="M1830 1290 c-41 -4 -50 -8 -35 -14 39 -15 48 -16 61 -5 7 5 25 14 41
19 32 10 14 10 -67 0z"/>
<path d="M2404 1275 c-3 -13 -2 -42 4 -62 10 -37 10 -36 11 25 1 65 -4 79 -15
37z"/>
<path d="M10 1270 c0 -6 32 -10 76 -10 66 0 75 -2 72 -17 -2 -10 -16 -21 -33
-24 -17 -4 -24 -7 -16 -8 8 0 25 -11 38 -23 l24 -22 6 22 c3 15 13 22 29 22
13 0 24 -4 24 -10 0 -5 5 -10 10 -10 6 0 10 7 10 16 0 13 -8 15 -40 12 -29 -2
-40 0 -40 10 0 7 5 10 10 7 14 -9 12 19 -2 33 -15 15 -168 17 -168 2z"/>
<path d="M190 1270 c0 -5 11 -10 24 -10 14 0 28 5 31 10 4 6 -7 10 -24 10 -17
0 -31 -4 -31 -10z"/>
<path d="M659 1256 c-1 -3 -3 -10 -4 -16 -1 -5 -3 -16 -4 -24 0 -7 -10 -16
-21 -19 -11 -3 -20 -12 -20 -21 0 -9 -6 -16 -14 -16 -8 0 -17 -4 -21 -10 -3
-5 7 -8 24 -7 22 1 32 8 36 25 6 25 35 30 35 6 0 -14 3 -14 15 -4 20 16 19 36
-1 44 -9 3 -14 13 -10 21 3 8 1 17 -4 20 -6 4 -11 4 -11 1z"/>
<path d="M575 1236 c-11 -12 -15 -66 -5 -66 12 0 26 36 21 56 -4 16 -9 19 -16
10z"/>
<path d="M1255 1240 c-3 -5 -3 -15 0 -20 7 -12 45 5 45 20 0 13 -37 13 -45 0z"/>
<path d="M1460 1240 c34 -15 108 -21 115 -9 4 5 -9 9 -27 9 -18 0 -51 3 -73 5
-35 5 -37 4 -15 -5z"/>
<path d="M463 1208 c0 -35 14 -61 28 -52 5 3 9 1 9 -5 0 -6 7 -8 15 -5 8 4 22
1 30 -6 13 -11 14 -10 9 3 -3 9 -15 19 -25 22 -14 5 -18 12 -14 26 5 14 2 19
-11 19 -13 0 -14 3 -4 15 10 13 9 15 -12 15 -21 0 -25 -5 -25 -32z"/>
<path d="M947 1233 c-4 -3 -6 -20 -6 -37 1 -17 3 -23 6 -14 4 16 6 16 19 3 18
-17 34 -20 34 -5 0 6 -7 10 -16 10 -10 0 -14 6 -10 15 3 8 1 15 -5 15 -6 0 -7
5 -4 10 7 11 -8 14 -18 3z"/>
<path d="M1175 1226 c-59 -17 -91 -36 -75 -46 8 -5 11 -19 7 -39 -4 -18 -2
-31 3 -31 6 0 10 -6 10 -14 0 -10 -13 -16 -37 -19 -31 -3 -27 -4 16 -5 46 -2
52 0 41 13 -9 11 -9 15 -1 15 7 0 9 5 5 11 -3 6 -9 27 -11 47 -4 28 -2 34 10
29 8 -3 23 3 33 14 20 22 40 25 46 7 3 -7 7 -2 10 10 7 25 3 25 -57 8z"/>
<path d="M1626 1176 c-3 -29 -3 -68 0 -85 l7 -31 -394 -1 c-680 -1 -740 -2
-734 -17 3 -8 5 -16 5 -18 0 -9 39 -4 45 6 3 6 11 10 16 10 6 0 8 -4 5 -9 -4
-5 0 -12 6 -14 8 -3 5 -6 -6 -6 -12 -1 -16 -6 -12 -16 3 -8 1 -15 -4 -15 -6 0
-10 -5 -10 -12 0 -6 3 -9 6 -5 8 8 34 -18 34 -33 0 -8 -14 -9 -45 -4 -32 4
-45 3 -45 -6 0 -6 10 -11 23 -10 46 4 73 0 58 -9 -8 -5 -9 -11 -3 -15 12 -7
1030 -9 1042 -1 6 4 10 -12 11 -37 1 -35 2 -39 8 -18 5 14 6 40 3 58 -3 21 -1
32 8 32 10 0 10 3 1 14 -9 11 -9 15 1 19 8 4 7 6 -4 6 -13 1 -18 -7 -18 -29 0
-22 -5 -30 -17 -30 -15 0 -16 2 -3 10 10 6 11 10 3 10 -17 0 -11 39 8 51 11 7
11 9 -4 9 -15 0 -18 7 -15 32 3 30 5 32 43 33 32 0 42 -5 53 -25 l14 -25 -6
25 c-3 14 -6 28 -6 33 0 4 -7 7 -15 7 -8 0 -15 8 -15 18 0 14 2 15 10 2 5 -8
10 -12 10 -9 0 6 -51 152 -55 157 -1 1 -5 -22 -9 -52z m36 -71 c3 -24 -3 -45
-12 -45 -6 0 -10 27 -9 63 1 57 2 59 10 27 6 -19 10 -39 11 -45z m-870 -69 c3
2 8 -2 11 -10 7 -18 -17 -28 -48 -20 -22 5 -22 7 -7 25 11 12 20 15 27 9 7 -6
14 -7 17 -4z m111 -16 c18 0 19 2 7 10 -13 8 -12 10 3 10 15 0 17 -10 17 -70
l0 -70 -54 0 -54 0 -4 70 c-2 39 0 70 5 70 4 0 7 -4 7 -10 0 -18 40 -11 41 8
1 16 2 16 6 0 3 -10 14 -18 26 -18z m103 18 c4 -7 3 -8 -4 -4 -7 4 -12 2 -12
-3 0 -15 37 -14 43 2 3 6 6 -21 6 -60 l1 -73 -52 2 -53 2 48 3 c26 2 47 8 47
13 0 6 -8 9 -17 8 -10 -1 -31 0 -48 2 l-30 2 30 8 30 8 -30 2 -30 2 34 8 c19
5 40 6 48 3 7 -3 13 0 13 6 0 6 -21 12 -47 13 l-48 2 48 3 c58 5 63 22 5 20
-41 -2 -54 9 -41 36 6 11 51 8 59 -5z m199 -18 c14 0 25 5 25 10 0 6 6 10 14
10 10 0 15 -15 18 -47 6 -88 3 -93 -53 -93 -42 0 -49 3 -49 20 0 12 7 20 18
21 16 1 16 2 0 6 -35 9 -17 20 27 17 26 -3 45 0 45 6 0 5 -20 10 -45 10 l-45
0 0 38 c1 30 3 34 11 20 5 -10 21 -18 34 -18z m266 9 c5 -8 8 -39 7 -69 l-3
-55 -100 -2 -101 -2 1 32 c1 30 3 32 40 35 22 1 43 6 47 10 4 4 -15 5 -41 4
-45 -4 -48 -2 -45 20 1 12 3 28 3 33 1 16 181 10 192 -6z m-811 -12 l45 -4
-47 -1 c-27 -1 -48 -6 -48 -12 0 -5 21 -11 48 -12 l47 -2 -47 -3 c-27 -2 -48
-9 -48 -15 0 -6 18 -9 45 -6 42 3 45 1 45 -20 0 -18 -4 -23 -16 -18 -9 3 -28
7 -42 7 -20 1 -17 4 13 9 l40 7 -42 2 c-25 0 -43 -4 -46 -11 -3 -7 -6 14 -6
47 0 33 3 55 7 48 4 -6 28 -13 52 -16z m108 -29 l47 -2 -47 -3 c-47 -4 -48 -5
-48 -38 0 -33 1 -34 48 -38 l47 -3 -52 -2 -53 -2 1 73 c1 39 4 60 6 45 4 -26
8 -28 51 -30z m382 -18 l0 -70 -50 0 -50 0 0 36 c0 34 2 36 28 31 15 -2 36 -1
47 3 15 6 7 9 -27 9 -46 1 -48 2 -48 31 0 29 1 30 50 30 l50 0 0 -70z m440 0
l0 -70 -53 0 -53 0 4 35 c2 19 7 33 11 31 3 -2 24 0 46 4 l40 8 -47 1 c-46 1
-48 2 -48 31 0 29 1 30 50 30 l50 0 0 -70z m-782 -26 c0 -18 -5 -24 -15 -20
-8 3 -27 7 -41 7 -23 1 -22 3 8 9 l35 7 -35 3 -35 3 35 7 c19 4 38 8 41 9 4 0
7 -11 7 -25z m-118 -38 c8 -2 -9 -4 -37 -5 -29 0 -53 3 -53 7 0 7 52 6 90 -2z"/>
<path d="M830 999 c0 -5 20 -9 45 -9 25 0 45 4 45 9 0 5 -20 9 -45 9 -25 0
-45 -4 -45 -9z"/>
<path d="M830 970 c0 -6 20 -9 45 -8 25 0 45 5 45 10 0 4 -20 8 -45 8 -25 0
-45 -5 -45 -10z"/>
<path d="M830 920 c0 -5 20 -10 45 -10 25 0 45 4 45 8 0 5 -20 10 -45 10 -25
1 -45 -2 -45 -8z"/>
<path d="M1175 1000 c-4 -6 10 -10 34 -10 23 0 41 5 41 10 0 6 -15 10 -34 10
-19 0 -38 -4 -41 -10z"/>
<path d="M1170 918 c0 -4 18 -8 40 -8 22 0 40 4 40 9 0 6 -18 9 -40 8 -22 -1
-40 -5 -40 -9z"/>
<path d="M2853 1160 c0 -41 2 -58 4 -37 2 20 2 54 0 75 -2 20 -4 3 -4 -38z"/>
<path d="M1528 1212 c-20 -4 -23 -17 -7 -28 12 -7 33 10 28 23 -2 5 -12 7 -21
5z"/>
<path d="M2010 1204 l-45 -14 40 7 c22 3 48 6 58 7 9 0 17 4 17 8 0 11 -16 9
-70 -8z"/>
<path d="M1716 1201 c-4 -6 -12 -8 -18 -5 -7 4 -8 2 -4 -4 4 -7 14 -12 22 -12
8 0 13 -4 10 -9 -4 -5 4 -7 16 -3 17 4 20 2 15 -11 -4 -10 -2 -17 3 -17 6 0
10 9 10 20 0 11 -7 20 -15 20 -7 0 -18 7 -23 16 -6 12 -11 13 -16 5z"/>
<path d="M1043 1173 c-15 -3 -23 -12 -23 -24 0 -18 2 -19 30 -4 27 14 42 37
23 34 -5 -1 -18 -4 -30 -6z"/>
<path d="M1968 1058 l4 -127 -54 -3 -53 -3 58 -5 57 -5 1 90 c1 114 17 86 20
-35 l2 -85 7 70 c5 60 2 82 -20 150 l-27 79 5 -126z"/>
<path d="M1197 1134 c-10 -13 -13 -25 -7 -29 5 -3 7 -12 3 -20 -4 -12 4 -15
41 -15 l45 0 -22 43 c-25 49 -36 53 -60 21z"/>
<path d="M1388 1155 c-4 -4 -3 -18 3 -32 14 -37 11 -43 -21 -43 -23 0 -31 5
-36 24 -4 18 -11 22 -25 19 -18 -5 -18 -7 -4 -23 8 -9 12 -20 8 -23 -3 -4 19
-7 50 -7 50 0 57 2 57 20 0 11 -4 20 -9 20 -5 0 -11 12 -13 26 -2 14 -6 23
-10 19z"/>
<path d="M454 1142 c4 -6 -2 -15 -11 -21 -17 -10 -16 -11 4 -17 12 -3 24 -11
26 -18 2 -6 2 1 0 17 -6 37 14 35 22 -3 l7 -30 269 0 c149 0 268 4 265 8 -3 5
-28 8 -56 8 -43 -1 -50 1 -50 18 0 18 -1 18 -24 -3 -20 -19 -31 -22 -58 -16
-49 11 -108 13 -114 3 -3 -4 -10 -8 -15 -8 -6 0 -7 6 -3 13 6 9 4 9 -8 -1 -18
-15 -91 -9 -96 8 -3 7 -9 4 -16 -5 -17 -24 -87 -5 -101 27 -6 13 -18 24 -29
26 -11 2 -16 0 -12 -6z"/>
<path d="M2595 1090 c22 -10 42 -16 45 -13 9 9 -34 33 -59 33 -23 -1 -21 -3
14 -20z"/>
<path d="M410 1086 c0 -10 9 -16 21 -16 24 0 21 23 -4 28 -10 2 -17 -3 -17
-12z"/>
<path d="M1803 1090 c2 -11 18 -15 53 -16 l49 -1 -45 4 c-24 2 -48 10 -53 16
-6 8 -7 7 -4 -3z"/>
<path d="M65 1050 c-3 -11 -10 -20 -15 -20 -9 0 -7 -26 3 -36 4 -4 7 -1 7 7 0
8 7 26 14 42 8 15 11 27 6 27 -5 0 -12 -9 -15 -20z"/>
<path d="M268 1048 c-14 -20 -19 -21 -37 -10 -12 7 -21 8 -21 3 0 -5 7 -11 15
-15 8 -3 15 -10 15 -17 0 -6 -7 -9 -15 -5 -8 3 -15 1 -15 -4 0 -18 25 -10 58
18 22 18 29 31 24 40 -7 10 -13 8 -24 -10z"/>
<path d="M157 1042 c-11 -12 -13 -22 -7 -32 8 -12 10 -10 11 10 0 14 3 19 6
13 7 -20 19 -15 20 7 2 25 -9 26 -30 2z"/>
<path d="M370 1044 c0 -8 5 -12 10 -9 6 3 10 1 10 -5 0 -6 11 -8 25 -6 29 5
32 -2 8 -20 -16 -12 -15 -13 11 -14 22 0 27 4 22 16 -3 9 -6 24 -6 35 0 14 -7
19 -26 19 -17 0 -23 -4 -18 -12 6 -10 4 -10 -7 0 -18 16 -29 15 -29 -4z"/>
<path d="M1753 1053 c59 -5 62 -21 5 -26 -24 -2 3 -4 60 -5 56 -1 102 1 102 6
0 4 -22 5 -50 4 -30 -3 -50 0 -50 7 0 5 26 12 58 14 31 2 5 3 -58 3 -63 0 -94
-1 -67 -3z"/>
<path d="M175 988 c2 -31 23 -34 23 -3 0 14 -6 25 -13 25 -6 0 -11 -10 -10
-22z"/>
<path d="M1738 987 c3 -13 10 -16 26 -10 11 4 33 7 48 8 14 0 29 3 33 6 3 4
22 3 41 -1 26 -6 34 -5 34 6 0 10 -21 13 -93 11 -84 -2 -93 -4 -89 -20z"/>
<path d="M2021 998 c-1 -4 4 -19 10 -35 6 -15 10 -80 10 -143 -1 -62 0 -112 3
-109 3 2 6 54 7 114 1 81 -2 119 -14 145 -8 19 -16 32 -16 28z"/>
<path d="M347 959 c5 -18 7 -19 15 -5 12 22 28 11 28 -20 0 -22 4 -24 48 -25
26 0 41 -3 35 -6 -30 -11 -9 -23 40 -22 l52 1 -35 12 c-19 6 -45 17 -57 24
-12 6 -34 13 -50 13 -26 2 -25 2 7 9 l35 7 -32 2 c-21 0 -32 6 -30 14 1 7 -11
13 -30 15 -28 3 -31 1 -26 -19z"/>
<path d="M425 972 c6 -5 24 -12 40 -15 17 -4 24 -4 17 -1 -6 3 -10 9 -8 13 3
4 -10 8 -27 9 -19 2 -28 -1 -22 -6z"/>
<path d="M1750 952 c0 -4 19 -6 43 -4 70 5 76 10 15 11 -32 0 -58 -2 -58 -7z"/>
<path d="M1713 923 c19 -5 17 -30 -2 -25 -6 1 -11 -5 -11 -13 0 -15 30 -22 30
-7 0 4 3 17 6 30 5 18 3 22 -17 21 -18 -1 -20 -2 -6 -6z"/>
<path d="M68 904 c-3 -3 -4 -13 -1 -24 5 -17 6 -17 22 -2 11 11 13 20 7 24
-13 9 -21 10 -28 2z"/>
<path d="M2853 845 c0 -38 2 -53 4 -32 2 20 2 52 0 70 -2 17 -4 1 -4 -38z"/>
<path d="M1772 890 c2 -8 19 -16 37 -18 29 -3 31 -1 20 11 -10 10 -16 11 -21
4 -4 -7 -12 -6 -24 4 -15 12 -17 12 -12 -1z"/>
<path d="M2065 870 c3 -14 5 -38 6 -55 1 -17 3 -22 6 -12 12 45 23 7 26 -90
l3 -108 2 108 c2 113 21 152 24 50 l1 -58 6 60 6 60 -31 3 c-25 2 -34 10 -43
35 -7 20 -9 23 -6 7z"/>
<path d="M323 873 c4 -3 -3 -18 -15 -31 -13 -14 -18 -22 -11 -19 6 4 14 1 16
-5 3 -7 6 -3 6 9 1 17 6 20 24 15 22 -5 22 -5 3 16 -11 12 -21 22 -24 22 -3 0
-2 -3 1 -7z"/>
<path d="M495 840 c-7 -12 2 -30 16 -30 5 0 9 8 9 18 0 13 2 14 9 3 6 -9 11
-10 15 -2 4 6 16 11 27 11 12 0 17 -4 13 -11 -4 -8 0 -8 15 0 16 9 21 9 21 -1
0 -9 3 -9 10 2 8 13 10 12 10 -2 0 -18 -9 -22 -42 -19 -10 1 -18 -3 -18 -9 0
-7 7 -9 16 -6 10 4 18 0 21 -13 6 -23 32 -36 35 -18 0 7 4 -10 8 -38 6 -47 7
-44 10 35 l4 85 6 -80 6 -80 4 80 4 80 6 -80 6 -80 2 78 c2 68 4 78 20 75 14
-2 18 -17 23 -78 l5 -75 4 80 4 80 6 -80 6 -80 4 80 4 80 6 -80 6 -80 4 80 4
80 6 -80 6 -80 2 78 2 78 28 -3 c26 -3 27 -6 33 -73 l5 -70 4 75 4 75 6 -80 6
-80 4 80 4 80 6 -80 6 -80 4 80 4 80 6 -75 6 -75 4 75 4 75 6 -80 6 -80 2 78
2 77 30 0 30 0 2 -77 2 -78 6 80 6 80 4 -80 4 -80 5 80 c4 50 9 71 12 55 6
-24 6 -24 8 -2 1 17 7 22 30 22 25 0 30 -5 34 -27 l4 -28 3 30 c2 17 7 -6 10
-50 l6 -80 2 78 c2 60 5 77 17 77 11 0 15 -18 18 -77 l3 -78 2 78 2 77 40 0
40 0 2 -77 2 -78 6 80 6 80 5 -80 5 -80 2 78 2 77 40 0 40 0 2 -67 2 -68 6 70
6 70 4 -80 4 -80 6 80 6 80 4 -80 4 -80 6 80 c4 55 7 71 11 50 l6 -30 2 28 c1
25 4 27 41 27 l39 0 4 -77 3 -78 2 77 2 77 33 4 c17 2 -221 5 -530 5 -365 1
-564 -1 -568 -8z"/>
<path d="M1183 760 c0 -41 2 -58 4 -37 2 20 2 54 0 75 -2 20 -4 3 -4 -38z"/>
<path d="M1333 760 c0 -41 2 -58 4 -37 2 20 2 54 0 75 -2 20 -4 3 -4 -38z"/>
<path d="M1383 765 c0 -38 2 -53 4 -32 2 20 2 52 0 70 -2 17 -4 1 -4 -38z"/>
<path d="M1493 760 c0 -41 2 -58 4 -37 2 20 2 54 0 75 -2 20 -4 3 -4 -38z"/>
<path d="M1513 760 c0 -41 2 -58 4 -37 2 20 2 54 0 75 -2 20 -4 3 -4 -38z"/>
<path d="M1533 760 c0 -41 2 -58 4 -37 2 20 2 54 0 75 -2 20 -4 3 -4 -38z"/>
<path d="M1573 775 c0 -33 2 -45 4 -27 2 18 2 45 0 60 -2 15 -4 0 -4 -33z"/>
<path d="M2163 765 c0 -33 2 -45 4 -27 2 18 2 45 0 60 -2 15 -4 0 -4 -33z"/>
<path d="M2189 769 c1 -28 5 -49 7 -47 8 9 7 79 -1 87 -7 7 -9 -8 -6 -40z"/>
<path d="M1633 745 c0 -33 2 -45 4 -27 2 18 2 45 0 60 -2 15 -4 0 -4 -33z"/>
<path d="M463 763 c2 -20 -3 -28 -18 -31 -11 -3 -31 -8 -44 -13 l-24 -9 29
-25 c30 -26 43 -31 45 -17 0 4 2 15 4 25 3 18 2 18 -15 2 -11 -10 -20 -12 -24
-6 -8 13 51 44 66 35 7 -5 8 -3 3 6 -4 7 -2 16 6 21 10 6 11 9 2 9 -7 0 -13 7
-13 15 0 8 -4 15 -9 15 -6 0 -9 -12 -8 -27z"/>
<path d="M2854 465 c0 -171 2 -242 3 -158 2 83 2 223 0 310 -1 87 -3 19 -3
-152z"/>
<path d="M341 666 c-14 -17 -19 -26 -11 -19 9 8 19 9 31 3 21 -12 32 9 15 31
-9 13 -14 11 -35 -15z"/>
<path d="M2233 620 c0 -47 2 -66 4 -42 2 23 2 61 0 85 -2 23 -4 4 -4 -43z"/>
<path d="M1410 670 l-225 -6 223 -2 222 -2 0 -100 0 -100 -42 0 c-32 0 -39 3
-28 10 13 9 13 11 0 20 -22 14 -30 12 -23 -7 5 -12 2 -15 -10 -10 -24 9 -21
-6 5 -29 12 -10 19 -14 15 -8 -4 7 9 11 38 12 42 0 45 -2 45 -25 0 -22 -3 -24
-22 -18 -49 15 -68 17 -68 7 0 -5 20 -13 45 -16 45 -7 45 -8 45 -47 0 -36 -3
-40 -30 -45 -16 -4 -32 -15 -35 -25 -5 -16 -9 -17 -20 -6 -8 8 -33 13 -62 12
-26 -1 -99 -2 -162 -3 -63 -1 -111 -5 -107 -9 9 -9 26 -11 210 -19 129 -5 157
-4 151 6 -6 10 -4 12 7 7 18 -6 52 25 67 63 10 25 10 25 10 2 1 -13 5 -20 11
-17 7 4 6 14 -2 28 -16 29 -17 38 -24 197 -3 74 -6 135 -7 135 -1 0 -103 -2
-227 -5z"/>
<path d="M828 653 c39 -2 105 -2 145 0 39 1 7 3 -73 3 -80 0 -112 -2 -72 -3z"/>
<path d="M1985 650 c7 -12 65 -14 65 -2 0 4 -16 9 -36 10 -23 2 -33 -1 -29 -8z"/>
<path d="M553 612 c2 -35 4 -38 32 -39 22 0 24 1 7 4 -19 4 -23 10 -20 35 2
17 -2 33 -9 35 -7 3 -11 -9 -10 -35z"/>
<path d="M642 633 c-5 -10 -7 -24 -5 -31 3 -7 -1 -19 -7 -27 -8 -10 -9 -15 -2
-15 6 0 16 18 22 41 12 44 8 62 -8 32z"/>
<path d="M90 633 c0 -7 5 -13 10 -13 6 0 10 -7 10 -15 0 -10 -9 -14 -30 -11
-23 3 -30 -1 -30 -14 0 -10 7 -20 15 -24 8 -3 15 -1 15 4 0 6 6 10 14 10 8 0
16 4 18 9 5 15 43 18 40 3 -1 -8 2 -11 7 -7 15 9 1 36 -18 33 -9 -2 -24 6 -33
17 -10 11 -17 15 -18 8z"/>
<path d="M1453 603 c26 -2 68 -2 95 0 26 2 4 3 -48 3 -52 0 -74 -1 -47 -3z"/>
<path d="M1361 558 c-1 -48 -17 -71 -32 -47 -5 8 -9 9 -9 4 0 -6 5 -16 11 -22
9 -9 8 -18 -5 -37 -9 -15 -12 -26 -6 -26 5 0 10 6 10 13 0 8 4 7 11 -3 9 -13
10 -13 6 1 -3 9 -1 22 4 30 5 9 9 -12 9 -58 0 -68 -2 -73 -21 -73 -18 0 -19 2
-9 15 8 9 9 15 2 15 -19 0 -24 -20 -10 -37 11 -15 11 -16 -4 -10 -16 6 -83
-11 -75 -19 7 -7 126 17 153 31 16 8 43 15 60 15 17 0 37 7 44 15 8 10 9 15 2
15 -6 0 -9 7 -6 15 4 8 1 15 -5 15 -6 0 -10 -5 -8 -11 1 -6 -9 -13 -22 -15
-14 -3 -30 -9 -37 -15 -8 -7 -14 -7 -19 1 -5 8 -11 5 -20 -6 -11 -15 -13 -11
-13 30 l-1 48 54 -4 c43 -4 55 -2 55 10 0 15 -40 70 -40 56 -1 -5 -12 4 -25
21 -13 16 -28 26 -32 22 -4 -5 -1 -13 7 -18 13 -9 13 -10 0 -6 -9 2 -18 20
-21 43 l-6 39 -2 -47z m66 -73 c6 -14 7 -25 2 -25 -5 0 -9 5 -9 10 0 6 -10 10
-22 10 -19 0 -20 -2 -8 -10 13 -8 12 -10 -2 -10 -13 0 -18 8 -18 25 0 35 40
35 57 0z"/>
<path d="M2035 550 c19 -36 28 -40 15 -6 -9 24 -8 25 43 29 l52 3 -63 2 -63 2
16 -30z"/>
<path d="M1282 544 c-9 -19 -9 -23 -1 -18 9 5 10 -1 4 -22 -4 -16 -7 -36 -6
-44 1 -8 2 -30 2 -48 1 -17 5 -35 10 -38 5 -3 9 38 9 95 0 56 -2 101 -3 101
-2 0 -9 -12 -15 -26z"/>
<path d="M2338 378 c2 -94 5 -169 7 -166 8 8 7 320 -2 329 -4 4 -7 -69 -5
-163z"/>
<path d="M2233 475 c0 -33 2 -45 4 -27 2 18 2 45 0 60 -2 15 -4 0 -4 -33z"/>
<path d="M2253 465 c0 -33 2 -45 4 -27 2 18 2 45 0 60 -2 15 -4 0 -4 -33z"/>
<path d="M764 350 c-32 -12 -84 -19 -84 -12 0 11 -80 6 -130 -8 -25 -7 -69
-14 -98 -15 -150 -9 -205 -18 -224 -37 -11 -11 -29 -18 -41 -18 -12 1 -24 1
-27 0 -3 -2 -16 -3 -30 -4 -14 -1 -29 -4 -35 -7 -5 -3 -17 -5 -25 -4 -21 1
-28 -12 -22 -41 4 -20 9 -23 26 -18 27 8 29 11 21 23 -3 6 -16 11 -28 12 -19
1 -18 2 5 9 63 19 112 18 139 -1 15 -10 31 -19 36 -19 4 0 0 5 -9 11 -26 15
-22 32 4 23 19 -6 21 -5 11 8 -17 20 -7 28 27 21 17 -3 37 1 50 10 16 11 31
13 60 6 23 -5 49 -5 63 0 16 6 28 6 36 -2 8 -8 11 -7 11 4 0 12 2 12 9 0 11
-16 34 -5 24 12 -4 7 2 5 12 -3 11 -9 16 -10 11 -2 -5 8 1 12 18 12 14 0 26 6
26 13 1 8 4 7 13 -3 7 -9 21 -15 32 -15 11 0 26 -4 33 -9 9 -6 11 -4 6 8 -8
20 0 20 34 0 20 -12 22 -12 9 -1 -16 14 -16 15 8 19 16 4 25 1 25 -8 0 -7 4
-15 9 -18 5 -4 7 4 4 16 -3 16 -2 19 5 10 5 -7 18 -15 28 -17 10 -2 19 -4 19
-5 0 -1 8 -3 18 -5 9 -2 15 1 12 5 -8 13 47 17 67 6 9 -6 20 -7 24 -3 16 16
-17 28 -82 30 -40 1 -71 7 -74 13 -3 7 -13 9 -26 4z"/>
<path d="M950 341 c8 -6 15 -16 15 -23 0 -16 27 -17 32 -2 2 6 -4 14 -14 18
-10 3 -25 9 -33 12 -13 5 -13 4 0 -5z"/>
<path d="M1065 311 c-3 -6 -2 -11 4 -11 6 0 8 -7 5 -15 -4 -9 -11 -15 -18 -14
-25 3 -37 -2 -30 -12 4 -7 -1 -7 -16 1 -18 10 -21 10 -15 -2 3 -7 -1 -4 -11 7
-12 15 -15 16 -11 4 4 -13 -2 -18 -26 -23 -18 -4 -35 -2 -41 5 -8 8 -6 10 9 5
11 -3 27 -1 35 5 12 8 11 9 -6 4 -13 -3 -26 1 -34 10 -12 14 -15 14 -31 -1
-10 -9 -23 -13 -30 -8 -7 4 -10 3 -6 -2 13 -22 -10 -37 -39 -27 -16 6 -40 9
-54 7 -14 -1 -28 -3 -32 -3 -5 -1 -8 -6 -8 -12 0 -7 16 -8 46 -3 37 5 45 4 39
-6 -5 -9 -24 -11 -62 -7 -29 3 -51 2 -48 -3 9 -15 -37 -19 -52 -5 -11 12 -48
14 -60 4 -4 -2 -20 -6 -34 -8 -6 0 -9 -8 -5 -16 8 -21 -11 -19 -23 3 -6 9 -11
11 -11 5 0 -7 -9 -13 -20 -13 -13 0 -18 5 -14 15 4 8 3 15 -1 15 -10 0 -36
-28 -33 -37 2 -4 -15 -12 -36 -18 -24 -7 -35 -14 -28 -19 7 -4 16 -5 21 -1 5
3 13 0 17 -6 5 -8 -8 -9 -46 -4 -40 6 -51 4 -45 -5 5 -9 2 -10 -13 -6 -14 5
-24 1 -31 -11 -6 -10 -11 -13 -11 -7 0 16 -50 14 -50 -1 0 -21 -30 -26 -53
-10 -12 8 -17 15 -11 15 5 0 11 15 12 33 l2 32 -17 -35 c-9 -19 -15 -42 -14
-51 1 -12 -7 -16 -34 -16 -35 0 -49 19 -22 31 9 5 9 7 0 12 -15 6 -18 24 -5
24 5 0 13 -10 19 -22 l9 -21 22 23 c26 28 28 37 7 37 -8 0 -12 -4 -9 -9 3 -5
-6 -6 -20 -2 -33 8 -54 -9 -50 -42 2 -19 -1 -23 -10 -15 -14 12 -36 -4 -36
-26 0 -10 20 -13 75 -13 60 0 109 10 248 50 159 46 343 87 427 95 33 3 120 20
238 47 29 6 55 15 58 20 3 4 20 8 37 9 18 0 41 4 52 9 18 8 17 9 -7 9 -15 1
-33 10 -41 22 -9 13 -17 16 -22 10z"/>
<path d="M2050 279 c0 -5 5 -7 10 -4 6 4 10 -5 10 -20 0 -15 -4 -24 -10 -20
-5 3 -10 1 -10 -5 0 -26 25 -1 28 28 2 24 -1 32 -12 32 -9 0 -16 -5 -16 -11z"/>
<path d="M1560 233 c-11 -3 -14 -16 -13 -53 2 -43 0 -50 -17 -50 -10 0 -22 -4
-25 -10 -3 -5 3 -10 14 -10 11 0 22 4 25 9 9 14 57 10 63 -5 3 -8 11 -14 18
-14 7 0 16 -7 19 -16 4 -9 13 -14 21 -10 8 3 15 0 15 -5 0 -7 -9 -9 -21 -6
-13 3 -19 1 -16 -6 5 -15 1357 -23 1357 -8 0 30 -12 36 -68 34 -31 -1 -59 -3
-62 -4 -3 -1 -9 0 -15 1 -44 9 -59 9 -71 0 -7 -7 -18 -9 -25 -5 -27 17 -81 17
-100 -1 -18 -16 -19 -16 -19 1 0 14 -3 15 -14 6 -11 -9 -16 -9 -22 0 -5 9 -11
7 -22 -7 -13 -17 -14 -17 -9 -1 5 14 2 16 -18 12 -14 -3 -36 -7 -50 -10 -21
-4 -25 -1 -26 17 -1 19 -3 18 -9 -7 -6 -23 -8 -10 -11 50 l-2 80 -7 -65 c-6
-67 -17 -65 -23 5 -3 32 -4 29 -5 -17 -2 -46 1 -57 16 -61 9 -3 -51 -5 -135
-6 -136 -1 -152 1 -156 17 -4 16 -5 16 -6 0 0 -10 -6 -18 -11 -18 -6 0 -9 3
-9 7 4 22 -3 24 -21 8 -18 -17 -20 -17 -20 -1 0 16 -2 16 -22 2 -23 -17 -58
-21 -58 -8 0 8 -148 7 -157 -1 -3 -3 -15 -2 -28 3 -13 5 -32 6 -44 3 -12 -3
-28 0 -36 7 -12 10 -15 9 -15 -4 0 -22 -11 -20 -38 9 -13 13 -39 30 -58 37
-22 8 -34 19 -34 31 0 10 -4 15 -10 12 -6 -3 -7 1 -4 9 3 9 10 13 15 10 13 -8
11 8 -4 26 -7 9 -19 14 -27 13z"/>
<path d="M329 222 c11 -8 9 -15 -13 -36 -33 -33 -32 -36 2 -30 79 13 83 15 67
30 -19 20 -19 28 0 20 8 -3 15 -1 15 5 0 6 -8 9 -17 7 -11 -2 -18 -12 -17 -26
0 -12 -5 -22 -12 -22 -8 0 -12 11 -11 26 1 17 -4 29 -13 31 -12 4 -13 3 -1 -5z"/>
<path d="M1439 221 c9 -6 10 -11 2 -15 -23 -15 -10 -86 16 -86 9 0 13 -6 10
-14 -4 -9 3 -16 16 -20 12 -3 18 -8 15 -11 -5 -6 -107 -7 -398 -4 -106 2 -283
3 -490 4 -47 0 -103 -3 -125 -8 -38 -7 -39 -6 -15 7 14 7 112 35 218 62 105
27 188 50 183 52 -14 5 -538 -132 -549 -143 -3 -3 287 -5 644 -5 l649 0 -60
31 c-117 61 -142 108 -75 141 l35 18 -45 0 c-29 0 -40 -3 -31 -9z"/>
<path d="M201 173 c-13 -11 -22 -24 -20 -30 5 -15 52 23 47 38 -2 7 -13 4 -27
-8z"/>
<path d="M2334 89 c-22 -5 -17 -7 24 -8 28 0 52 3 52 8 0 10 -29 10 -76 0z"/>
</g>
</svg>
