<?xml version="1.0" encoding="UTF-8"?>
<svg id="Layer_1" data-name="Layer 1" xmlns="http://www.w3.org/2000/svg" version="1.1" viewBox="0 0 332.2 332.2">
  <defs>
    <style>
      .cls-1 {
        fill: #010101;
      }

      .cls-1, .cls-2 {
        stroke-width: 0px;
      }

      .cls-2 {
        fill: #fff;
        fill-rule: evenodd;
      }
    </style>
  </defs>
  <path class="cls-1" d="M290.6,74.3s0,0,0,0L179.7,12.1c-8.6-4.8-19.2-4.8-27.8,0l-110.8,62.2c-9,5-14.5,14.5-14.5,24.8v135.5c0,10.3,5.6,19.8,14.6,24.8l110.8,61.6c4.3,2.4,9.1,3.6,13.8,3.6s9.5-1.2,13.8-3.6l110.8-61.6c9-5,14.6-14.5,14.6-24.8V99.1c0-10.3-5.6-19.8-14.5-24.8Z"/>
  <g>
    <path class="cls-2" d="M129.2,178.2l-14.5-8c-5.7-3.1-12.6,1-12.6,7.4s1.7,6,4.4,7.4l14.8,8.2c5.6,3.1,12.4-1,12.4-7.4s-1.7-6.1-4.5-7.7Z"/>
    <path class="cls-2" d="M150.1,68.2l1.1.6c1.5.8,3.2.8,4.7,0l11.7-6.3c1.7-.9,1.7-3.4,0-4.3l-1.4-.8c-1.5-.8-3.3-.8-4.8,0l-11.4,6.5c-1.7,1-1.7,3.4,0,4.3Z"/>
    <path class="cls-2" d="M284.9,99.5s0,0,0,0h0c0-.8-.1-1.5-.3-2.3,0-.1-.1-.2-.1-.4-.2-.6-.4-1.2-.7-1.7-.1-.2-.3-.3-.4-.5-.3-.5-.6-.9-1-1.3s-.4-.3-.6-.4c-.4-.3-.7-.6-1.2-.9,0,0,0,0,0,0,0,0,0,0,0,0l-110.7-62.1c-2.6-1.5-5.8-1.5-8.4,0l-110.7,62.1s0,0,0,0c0,0,0,0-.1,0-.5.3-.8.6-1.2,1-.2.1-.3.2-.5.4-.4.4-.8.9-1.1,1.4,0,.1-.2.2-.3.4-.4.6-.6,1.3-.8,2,0,0,0,0,0,0-.2.7-.3,1.5-.3,2.3v135.3c0,3.1,1.7,6,4.4,7.5l110.7,61.5c.3.2.6.2.9.4.3.1.7.3,1,.4.4,0,.7.1,1.1.2.4,0,.7.1,1.1.1.4,0,.7,0,1.1-.1.4,0,.7,0,1.1-.2.4,0,.7-.3,1-.4.3-.1.6-.2,1-.4l110.7-61.5c2.7-1.5,4.4-4.4,4.4-7.5V99.5s0,0,0,0ZM135.4,64.2l27.9-15.6c1.5-.8,3.3-.8,4.8,0l31.7,17.8c1.7.9,1.7,3.4,0,4.3l-2.5,1.4c-1.5.8-3.3.8-4.8,0l-10.4-5.7c-1.5-.8-3.3-.8-4.8,0l-11.6,6.4c-1.7.9-1.7,3.4,0,4.3l7.4,4.1c1.7.9,1.7,3.4,0,4.3l-2.8,1.6c-3,1.6-6.6,1.6-9.6,0l-25.5-14.2c-3.4-1.9-3.4-6.7,0-8.6ZM80.3,95.1l25-14.1c2.9-1.6,6.5-1.6,9.4,0l46.1,25.6c3,1.6,6.6,1.6,9.6,0l46.1-25.6c2.9-1.6,6.5-1.6,9.4,0l25,14.1c3.3,1.9,3.3,6.7,0,8.6l-80.6,44.8c-3,1.6-6.5,1.6-9.5,0l-80.6-44.8c-3.3-1.9-3.3-6.7,0-8.6ZM157,219.4c0,7.5-8.1,12.2-14.6,8.6l-26.1-14.5c-6.6-3.6-14.6,1.1-14.6,8.6v12.4c0,7.3-7.9,12-14.3,8.4l-18.8-10.4c-3.1-1.7-5.1-5-5.1-8.6v-93.1c0-7.5,8-12.2,14.6-8.6l73.8,41c3.1,1.7,5,5,5,8.6v47.6ZM267.7,223.9c0,3.6-1.9,6.9-5.1,8.6l-73.8,41c-6.6,3.6-14.6-1.1-14.6-8.6v-19.2c0-3.6,1.9-6.9,5.1-8.6l57.3-31.8c2.7-1.5,4.4-4.4,4.4-7.5,0-6.4-6.9-10.4-12.6-7.3l-39.5,21.8c-6.6,3.6-14.6-1.1-14.6-8.6v-31.7c0-3.6,1.9-6.8,5-8.6l24.6-13.7c3.3-1.8,7.3.6,7.3,4.3v9c0,6.5,6.9,10.7,12.7,7.6,2.8-1.5,4.5-4.4,4.5-7.6v-21.1c0-3.6,1.9-6.8,5-8.6l19.7-11c6.6-3.6,14.6,1.1,14.6,8.6v93.1Z"/>
  </g>
</svg>